<svg id="Layer_1" enable-background="new 0 0 90 90" height="512" viewBox="0 0 90 90" width="512" xmlns="http://www.w3.org/2000/svg" xmlns:xlink="http://www.w3.org/1999/xlink"><linearGradient id="lg1"><stop offset="0" stop-color="#414bf9"/><stop offset="1" stop-color="#73e0f9"/></linearGradient><linearGradient id="SVGID_1_" gradientUnits="userSpaceOnUse" x1="13" x2="24" xlink:href="#lg1" y1="56" y2="56"/><linearGradient id="lg2"><stop offset="0" stop-color="#faaf40"/><stop offset="1" stop-color="#fff100"/></linearGradient><linearGradient id="SVGID_2_" gradientUnits="userSpaceOnUse" x1="20.5" x2="62.5" xlink:href="#lg2" y1="45" y2="45"/><linearGradient id="SVGID_3_" gradientUnits="userSpaceOnUse" x1="25.5" x2="57.5" y1="34.619" y2="34.619"><stop offset="0" stop-color="#fff100"/><stop offset="1" stop-color="#faaf40"/></linearGradient><linearGradient id="lg3"><stop offset="0" stop-color="#f7aa43"/><stop offset="1" stop-color="#ff795a"/></linearGradient><linearGradient id="SVGID_4_" gradientUnits="userSpaceOnUse" x1="30.326" x2="41.972" xlink:href="#lg3" y1="41.043" y2="41.043"/><linearGradient id="SVGID_5_" gradientUnits="userSpaceOnUse" x1="41.079" x2="56.223" xlink:href="#lg3" y1="37.979" y2="37.979"/><linearGradient id="SVGID_6_" gradientUnits="userSpaceOnUse" x1="32" x2="47" xlink:href="#lg2" y1="56.5" y2="56.5"/><linearGradient id="SVGID_7_" gradientUnits="userSpaceOnUse" x1="32" x2="47" xlink:href="#lg2" y1="64.5" y2="64.5"/><linearGradient id="SVGID_8_" gradientUnits="userSpaceOnUse" x1="32" x2="47" xlink:href="#lg2" y1="72.5" y2="72.5"/><linearGradient id="SVGID_9_" gradientUnits="userSpaceOnUse" x1="51.49" x2="51.49" xlink:href="#lg1" y1="78" y2="39"/><linearGradient id="SVGID_10_" gradientUnits="userSpaceOnUse" x1="10" x2="81" xlink:href="#lg1" y1="56" y2="56"/><path d="m20.5 69.5v-35.5h-7.5v38.5c0 3.03 2.47 5.5 5.5 5.5s5.5-2.47 5.5-5.5h-.5c-1.66 0-3-1.34-3-3z" fill="url(#SVGID_1_)"/><path d="m20.5 34v35.5c0 1.66 1.34 3 3 3h.5v-22c0-1.454.573-2.776 1.5-3.761v-13.633-10.606h32v17.437l.3-.337c1.28-1.44 2.91-2.49 4.7-3.07v-16.03c0-1.66-1.34-3-3-3h-36c-1.66 0-3 1.34-3 3v10.5z" fill="url(#SVGID_2_)"/><path d="m25.5 22.5v10.606 13.632c1.004-1.067 2.424-1.739 4-1.739h.826l7.121-7.915 3.782 5.897 7.622-12.024 7.372 10.415 1.277-1.435v-17.437zm10.5 10c-1.381 0-2.5-1.119-2.5-2.5s1.119-2.5 2.5-2.5 2.5 1.119 2.5 2.5-1.119 2.5-2.5 2.5z" fill="url(#SVGID_3_)"/><path d="m41.229 42.982-3.782-5.897-7.121 7.915h11.646l-.893-1.781z" fill="url(#SVGID_4_)"/><path d="m41.229 42.982-.151.238.894 1.78h7.538c2.21 0 4.32-.95 5.79-2.59l.923-1.038-7.372-10.415z" fill="url(#SVGID_5_)"/><g fill="#fff"><circle cx="36" cy="30" r="2.5"/><circle cx="62" cy="58" r="6.5"/><path d="m62 69.718c-4.949 0-9.055 3.575-9.897 8.282h19.794c-.842-4.707-4.948-8.282-9.897-8.282z"/></g><path d="m33.5 55c-.828 0-1.5.672-1.5 1.5s.672 1.5 1.5 1.5h12c.828 0 1.5-.672 1.5-1.5s-.672-1.5-1.5-1.5z" fill="url(#SVGID_6_)"/><path d="m33.5 66h12c.828 0 1.5-.672 1.5-1.5s-.672-1.5-1.5-1.5h-12c-.828 0-1.5.672-1.5 1.5s.672 1.5 1.5 1.5z" fill="url(#SVGID_7_)"/><path d="m33.5 74h12c.828 0 1.5-.672 1.5-1.5s-.672-1.5-1.5-1.5h-12c-.828 0-1.5.672-1.5 1.5s.672 1.5 1.5 1.5z" fill="url(#SVGID_8_)"/><path d="m23.5 14h42.5v18.5c0 .828.672 1.5 1.5 1.5s1.5-.672 1.5-1.5v-20c0-.828-.672-1.5-1.5-1.5h-44c-.828 0-1.5.672-1.5 1.5s.672 1.5 1.5 1.5z" fill="#efad29"/><g><g><path d="m24.98 78h27.123c.842-4.707 4.948-8.282 9.897-8.282s9.055 3.575 9.897 8.282h6.103v-36.5c0-1.38-1.12-2.5-2.5-2.5h-9.67c-1.17 0-2.3.26-3.33.76-.93.43-1.76 1.06-2.46 1.83l-2.5 2.81c-2.04 2.29-4.96 3.6-8.03 3.6h-20.01c-1.38 0-2.5 1.12-2.5 2.5v22c0 2.1-.76 4.02-2.02 5.5zm22.02-21.5c0 .828-.672 1.5-1.5 1.5h-12c-.828 0-1.5-.672-1.5-1.5s.672-1.5 1.5-1.5h12c.828 0 1.5.672 1.5 1.5zm-13.5 6.5h12c.828 0 1.5.672 1.5 1.5s-.672 1.5-1.5 1.5h-12c-.828 0-1.5-.672-1.5-1.5s.672-1.5 1.5-1.5zm28.5-11.5c3.59 0 6.5 2.91 6.5 6.5s-2.91 6.5-6.5 6.5-6.5-2.91-6.5-6.5 2.91-6.5 6.5-6.5zm-28.5 19.5h12c.828 0 1.5.672 1.5 1.5s-.672 1.5-1.5 1.5h-12c-.828 0-1.5-.672-1.5-1.5s.672-1.5 1.5-1.5z" fill="url(#SVGID_9_)"/><path d="m75.5 36h-9.67c-1.14 0-2.26.18-3.33.53-1.79.58-3.42 1.63-4.7 3.07l-.3.337-1.277 1.435-.923 1.038c-1.47 1.64-3.58 2.59-5.79 2.59h-7.538-11.646-.826c-1.576 0-2.996.672-4 1.739-.927.985-1.5 2.307-1.5 3.761v22c0 3.03-2.47 5.5-5.5 5.5s-5.5-2.47-5.5-5.5v-38.5h7.5v-3h-9c-.83 0-1.5.67-1.5 1.5v40c0 4.69 3.81 8.5 8.5 8.5.24 0 .47-.01.71-.03.09.02.19.03.29.03h60c.83 0 1.5-.67 1.5-1.5v-38c0-3.03-2.47-5.5-5.5-5.5zm-48.5 14.5c0-1.38 1.12-2.5 2.5-2.5h20.01c3.07 0 5.99-1.31 8.03-3.6l2.5-2.81c.7-.77 1.53-1.4 2.46-1.83 1.03-.5 2.16-.76 3.33-.76h9.67c1.38 0 2.5 1.12 2.5 2.5v36.5h-6.103-19.794-27.123c1.26-1.48 2.02-3.4 2.02-5.5z" fill="url(#SVGID_10_)"/></g><g fill="url(#SVGID_10_)"><path d="m24.98 78h27.123c.842-4.707 4.948-8.282 9.897-8.282s9.055 3.575 9.897 8.282h6.103v-36.5c0-1.38-1.12-2.5-2.5-2.5h-9.67c-1.17 0-2.3.26-3.33.76-.93.43-1.76 1.06-2.46 1.83l-2.5 2.81c-2.04 2.29-4.96 3.6-8.03 3.6h-20.01c-1.38 0-2.5 1.12-2.5 2.5v22c0 2.1-.76 4.02-2.02 5.5zm22.02-21.5c0 .828-.672 1.5-1.5 1.5h-12c-.828 0-1.5-.672-1.5-1.5s.672-1.5 1.5-1.5h12c.828 0 1.5.672 1.5 1.5zm-13.5 6.5h12c.828 0 1.5.672 1.5 1.5s-.672 1.5-1.5 1.5h-12c-.828 0-1.5-.672-1.5-1.5s.672-1.5 1.5-1.5zm28.5-11.5c3.59 0 6.5 2.91 6.5 6.5s-2.91 6.5-6.5 6.5-6.5-2.91-6.5-6.5 2.91-6.5 6.5-6.5zm-28.5 19.5h12c.828 0 1.5.672 1.5 1.5s-.672 1.5-1.5 1.5h-12c-.828 0-1.5-.672-1.5-1.5s.672-1.5 1.5-1.5z"/><path d="m75.5 36h-9.67c-1.14 0-2.26.18-3.33.53-1.79.58-3.42 1.63-4.7 3.07l-.3.337-1.277 1.435-.923 1.038c-1.47 1.64-3.58 2.59-5.79 2.59h-7.538-11.646-.826c-1.576 0-2.996.672-4 1.739-.927.985-1.5 2.307-1.5 3.761v22c0 3.03-2.47 5.5-5.5 5.5s-5.5-2.47-5.5-5.5v-38.5h7.5v-3h-9c-.83 0-1.5.67-1.5 1.5v40c0 4.69 3.81 8.5 8.5 8.5.24 0 .47-.01.71-.03.09.02.19.03.29.03h60c.83 0 1.5-.67 1.5-1.5v-38c0-3.03-2.47-5.5-5.5-5.5zm-48.5 14.5c0-1.38 1.12-2.5 2.5-2.5h20.01c3.07 0 5.99-1.31 8.03-3.6l2.5-2.81c.7-.77 1.53-1.4 2.46-1.83 1.03-.5 2.16-.76 3.33-.76h9.67c1.38 0 2.5 1.12 2.5 2.5v36.5h-6.103-19.794-27.123c1.26-1.48 2.02-3.4 2.02-5.5z"/></g></g></svg>